<svg xmlns="http://www.w3.org/2000/svg" width="256" height="256" viewBox="0 0 100 100"><path fill="#9013fe" d="M30.79 26.15L69.22 26.15Q71.56 26.15 72.95 27.45Q74.34 28.76 74.34 30.83L74.34 30.83Q74.34 32.09 73.85 33.21Q73.35 34.34 72.63 35.87L72.63 35.87L55.35 69.89Q54.37 71.87 53.11 72.86Q51.84 73.85 49.95 73.85L49.95 73.85Q48.16 73.85 46.89 72.81Q45.63 71.78 44.64 69.89L44.64 69.89L27.37 35.87Q26.64 34.34 26.15 33.21Q25.66 32.09 25.66 30.83L25.66 30.83Q25.66 28.67 27.05 27.41Q28.45 26.15 30.79 26.15L30.79 26.15Z"></path></svg>